<?xml version="1.0" encoding="UTF-8" standalone="no"?>
<svg
   xmlns="http://www.w3.org/2000/svg"
   version="1.1"
   x="0px"
   y="0px"
   viewBox="0 0 512 512"
   xml:space="preserve">

><path
     d="M 16 16 L 16 496 L 112 496 L 112 454.37109 C 156.33284 445.74599 194.72555 425.85745 223.8125 401.57617 C 233.63976 393.37255 242.58964 384.86357 250.84375 376.21875 C 260.04309 385.4557 270.05744 394.50019 281.10547 403.12305 C 312.47223 427.60442 353.06806 446.90939 400 454.94336 L 400 496 L 496 496 L 496 16 L 400 16 L 400 57.056641 C 353.06806 65.090614 312.47223 84.395582 281.10547 108.87695 C 270.05744 117.49981 260.04309 126.5443 250.84375 135.78125 C 242.58964 127.13643 233.63976 118.62745 223.8125 110.42383 C 194.72555 86.142551 156.33284 66.254014 112 57.628906 L 112 16 L 16 16 z M 400 210.94141 L 400 301.05859 C 390.35202 297.06299 382.03821 291.62324 373.39453 284.87695 C 363.85084 277.42823 354.29221 267.64004 344.42188 256 C 354.29221 244.35996 363.85084 234.57177 373.39453 227.12305 C 382.03821 220.37676 390.35202 214.93701 400 210.94141 z M 112 214.10938 C 117.22078 217.24835 122.26682 221.05108 127.6875 225.57617 C 136.79767 233.18119 146.25638 243.53729 156.32227 256 C 146.25638 268.46271 136.79767 278.81881 127.6875 286.42383 C 122.26682 290.94892 117.22078 294.75165 112 297.89062 L 112 214.10938 z "
    /></svg>
