<?xml version="1.0" encoding="UTF-8" standalone="no"?>
<svg
   xmlns="http://www.w3.org/2000/svg"
   xml:space="preserve"
   viewBox="0 0 512 512"
   y="0px"
   x="0px"
   version="1.1">
	<path
   d="m 256,506 c 2.5,-23.5 5.2,-46.6 8,-69.3 2.8,-22.7 5.5,-45.8 8,-69.3 l -63.6,0 c -2.6,23.5 -5.2,46.6 -8,69.3 -2.8,22.7 -5.5,45.8 -8,69.3 l -79.6,0 c 2.5,-23.5 5.2,-46.6 8,-69.3 2.8,-22.7 5.5,-45.8 8,-69.3 l -66.5,0 c 1.5,-13.3 3.2,-26.2 5,-38.7 1.8,-12.5 3.2,-25.1 4.2,-37.9 l 66.6,0 8.4,-66.6 -66.6,0 8.4,-75.8 65.9,0 C 157.8,123.9 161,100 163.8,76.8 166.6,53.6 169.5,30 172.6,6 l 79.6,0 -18.4,142.4 64.3,0 c 2.5,-24.5 5.4,-48.4 8.4,-71.6 3.1,-23.2 6.1,-46.8 9.2,-70.8 l 79.6,0 -18.3,142.4 72.7,0 c -1.5,12.8 -2.8,25.4 -3.8,37.9 -1,12.5 -2.3,25.1 -3.8,37.9 l -73.5,0 -7.7,66.6 72.7,0 c -1.5,12.8 -3.2,25.4 -5,37.9 -1.8,12.5 -3.2,25.4 -4.2,38.7 l -72.7,0 L 334.9,506 256,506 Z M 225.4,224.2 c -1,11.2 -2.2,22.3 -3.4,33.3 -1.3,11 -2.7,22.1 -4.2,33.3 l 63.6,0 7.7,-66.6 -63.7,0 z" />
</svg>