<?xml version="1.0" encoding="UTF-8" standalone="no"?>
<svg
   xmlns="http://www.w3.org/2000/svg"
   xml:space="preserve"
   viewBox="0 0 512 512"
   y="0px"
   x="0px"
   version="1.1">
<path
   d="M 16 16 L 16 144 L 152 144 L 152 16 L 16 16 z M 360 16 L 360 144 L 496 144 L 496 16 L 360 16 z M 279.85156 30.003906 A 10.001 10.001 0 0 0 270.19336 41.960938 L 275.80273 70 L 192 70 L 182 70 L 182 90 L 192 90 L 275.80273 90 L 270.19336 118.03906 A 10.001 10.001 0 0 0 287.07031 127.07031 L 327.07031 87.070312 L 334.14258 80 L 327.07031 72.929688 L 320 65.859375 L 287.07031 32.929688 A 10.001 10.001 0 0 0 279.85156 30.003906 z M 16 192 L 16 320 L 152 320 L 152 192 L 16 192 z M 360 192 L 360 320 L 496 320 L 496 192 L 360 192 z M 279.85156 206.00391 A 10.001 10.001 0 0 0 270.19336 217.96094 L 275.80273 246 L 192 246 L 182 246 L 182 266 L 192 266 L 275.80273 266 L 270.19336 294.03906 A 10.001 10.001 0 0 0 287.07031 303.07031 L 327.07031 263.07031 L 334.14258 256 L 327.07031 248.92969 L 320 241.85938 L 287.07031 208.92969 A 10.001 10.001 0 0 0 279.85156 206.00391 z M 16 368 L 16 496 L 152 496 L 152 368 L 16 368 z M 360 368 L 360 496 L 496 496 L 496 368 L 360 368 z M 279.85156 382.00391 A 10.001 10.001 0 0 0 270.19336 393.96094 L 275.80273 422 L 192 422 L 182 422 L 182 442 L 192 442 L 275.80273 442 L 270.19336 470.03906 A 10.001 10.001 0 0 0 287.07031 479.07031 L 327.07031 439.07031 L 334.14258 432 L 327.07031 424.92969 L 320 417.85938 L 287.07031 384.92969 A 10.001 10.001 0 0 0 279.85156 382.00391 z " />
</svg>
