<?xml version="1.0" encoding="UTF-8" standalone="no"?>
<svg
   xmlns="http://www.w3.org/2000/svg"
   version="1.1"
   x="0px"
   y="0px"
   viewBox="0 0 512 512"
   xml:space="preserve">
  <path d="M 256 16.210938 C 123.95362 16.210938 16.210938 123.95362 16.210938 256 C 16.210938 388.04638 123.95362 495.78906 256 495.78906 C 388.04638 495.78906 495.78906 388.04638 495.78906 256 C 495.78906 123.95362 388.04638 16.210937 256 16.210938 z M 256 81.210938 C 352.91777 81.210938 430.78906 159.08223 430.78906 256 C 430.78906 352.91777 352.91777 430.78906 256 430.78906 C 159.08223 430.78906 81.210938 352.91777 81.210938 256 C 81.210938 159.08223 159.08223 81.210938 256 81.210938 z M 270.23438 132.61719 A 17.50175 17.50175 0 0 0 252.99805 150.36523 L 252.99805 252.95508 L 165.48242 252.72852 A 17.50175 17.50175 0 1 0 165.39258 287.72852 L 270.45312 288 A 17.50175 17.50175 0 0 0 287.99805 270.5 L 287.99805 150.36523 A 17.50175 17.50175 0 0 0 270.23438 132.61719 z "/>
</svg>
