<?xml version="1.0" encoding="UTF-8" standalone="no"?>
<svg
   xmlns="http://www.w3.org/2000/svg"
   xml:space="preserve"
   viewBox="0 0 512 512"
   y="0px"
   x="0px"
   version="1.1">
<path
   d="M 256,18 C 124.78175,18 18,124.78175 18,256 18,387.21825 124.78175,494 256,494 387.21825,494 494,387.21825 494,256 494,124.78175 387.21825,18 256,18 Z m 0,61.999998 c 97.40069,0 176,78.599312 176,176.000002 0,97.40069 -78.59931,176 -176,176 C 158.59931,432 79.999998,353.40069 79.999998,256 79.999998,158.59931 158.59931,79.999998 256,79.999998 Z m 0.46838,31.227622 -26.76349,51.80773 -26.76348,51.80538 53.52697,0 53.53162,0 -26.76348,-51.80538 z M 169.60709,233.5 c -32.72296,0 -59.25,26.52705 -59.25,59.25 0,32.72296 26.52704,59.25 59.25,59.25 32.72295,0 59.25262,-26.52704 59.25262,-59.25 0,-32.72295 -26.52967,-59.25 -59.25262,-59.25 z M 280,259.2461 l 0,97.8496 97.84961,0 0,-97.8496 z" /></svg>
