<?xml version="1.0" encoding="UTF-8" standalone="no"?>
<svg
   xmlns="http://www.w3.org/2000/svg"
   version="1.1"
   viewBox="0 0 256 256"
   height="256"
   width="256">
  <path d="M 16 16 L 16 240 L 160 240 L 160 192 L 64 192 L 64 16 L 16 16 z M 72 38 L 72 58 L 152 58 L 152 38 L 72 38 z M 160 38 L 160 58 L 240 58 L 240 38 L 160 38 z M 72 78 L 72 98 L 104 98 L 104 78 L 72 78 z M 112 78 L 112 98 L 224 98 L 224 78 L 112 78 z M 72 118 L 72 138 L 120 138 L 120 118 L 72 118 z M 128 118 L 128 138 L 200 138 L 200 118 L 128 118 z M 72 158 L 72 178 L 144 178 L 144 158 L 72 158 z M 152 158 L 152 178 L 184 178 L 184 158 L 152 158 z " />
</svg>
