<?xml version="1.0" encoding="UTF-8" standalone="no"?>
<svg
   xmlns="http://www.w3.org/2000/svg"
   version="1.1"
   x="0px"
   y="0px"
   viewBox="0 0 512 512"
   xml:space="preserve"
   >
<path
   d="m 10,10 0,140 140,0 0,-140 -140,0 z m 180,0 0,140 140,0 0,-140 -140,0 z m 180,0 0,140 140,0 0,-140 -140,0 z m -360,180 0,140 140,0 0,-140 -140,0 z m 180,0 0,140 140,0 0,-140 -140,0 z m 180,0 0,140 140,0 0,-140 -140,0 z m -360,180 0,140 140,0 0,-140 -140,0 z m 180,0 0,140 140,0 0,-140 -140,0 z m 180,0 0,140 140,0 0,-140 -140,0 z" />
</svg>