<?xml version="1.0" encoding="UTF-8" standalone="no"?>
<svg
   xmlns="http://www.w3.org/2000/svg"
   version="1.1"
   x="0px"
   y="0px"
   viewBox="0 0 512 512"
   xml:space="preserve">
><path
     d="M 16 16 L 16 496 L 112 496 L 112 443.61523 L 256 400.11523 L 400 443.61523 L 400 496 L 496 496 L 496 16 L 400 16 L 400 55 L 112 55 L 112 16 L 16 16 z M 112 105 L 400 105 L 400 175 L 112 175 L 112 105 z M 112 225 L 400 225 L 400 304.38477 L 256 347.88477 L 112 304.38477 L 112 225 z M 112 356.61523 L 169.54883 374 L 112 391.38477 L 112 356.61523 z M 400 356.61523 L 400 391.38477 L 342.45117 374 L 400 356.61523 z "
    /></svg>
