<?xml version="1.0" encoding="UTF-8" standalone="no"?>
<svg
   xmlns:dc="http://purl.org/dc/elements/1.1/"
   xmlns:cc="http://creativecommons.org/ns#"
   xmlns:rdf="http://www.w3.org/1999/02/22-rdf-syntax-ns#"
   xmlns:svg="http://www.w3.org/2000/svg"
   xmlns="http://www.w3.org/2000/svg"
   id="svg2"
   xml:space="preserve"
   style="enable-background:new 0 0 512 512;"
   viewBox="0 0 512 512"
   y="0px"
   x="0px"
   version="1.1"><metadata
   id="metadata18"><rdf:RDF><cc:Work
       rdf:about=""><dc:format>image/svg+xml</dc:format><dc:type
         rdf:resource="http://purl.org/dc/dcmitype/StillImage" /><dc:title></dc:title></cc:Work></rdf:RDF></metadata><defs
   id="defs16" />
<style
   id="style4"
   type="text/css">
	.st0{fill:#999999;}
</style>
<path
   d="M 256,32 A 107.7,107.7 0 0 0 148.30078,139.69922 107.7,107.7 0 0 0 256,247.40039 107.7,107.7 0 0 0 363.69922,139.69922 107.7,107.7 0 0 0 256,32 Z M 113.69922,264.59961 A 107.7,107.7 0 0 0 6,372.30078 107.7,107.7 0 0 0 113.69922,480 107.7,107.7 0 0 0 221.40039,372.30078 107.7,107.7 0 0 0 113.69922,264.59961 Z m 284.60156,0 A 107.7,107.7 0 0 0 290.59961,372.30078 107.7,107.7 0 0 0 398.30078,480 107.7,107.7 0 0 0 506,372.30078 107.7,107.7 0 0 0 398.30078,264.59961 Z"
   style="fill:#000000"
   id="circle8" />
</svg>