<?xml version="1.0" encoding="UTF-8" standalone="no"?>
<svg
   xmlns:dc="http://purl.org/dc/elements/1.1/"
   xmlns:cc="http://creativecommons.org/ns#"
   xmlns:rdf="http://www.w3.org/1999/02/22-rdf-syntax-ns#"
   xmlns:svg="http://www.w3.org/2000/svg"
   xmlns="http://www.w3.org/2000/svg"
   xmlns:sodipodi="http://sodipodi.sourceforge.net/DTD/sodipodi-0.dtd"
   xmlns:inkscape="http://www.inkscape.org/namespaces/inkscape"
   version="1.1"
   x="0px"
   y="0px"
   viewBox="0 0 512 512"
   style="enable-background:new 0 0 512 512;"
   xml:space="preserve"
   id="svg2"
   inkscape:version="0.91 r13725"
   sodipodi:docname="icon_matrix.svg"><metadata
   id="metadata30"><rdf:RDF><cc:Work
       rdf:about=""><dc:format>image/svg+xml</dc:format><dc:type
         rdf:resource="http://purl.org/dc/dcmitype/StillImage" /></cc:Work></rdf:RDF></metadata><defs
   id="defs28" /><sodipodi:namedview
   pagecolor="#ffffff"
   bordercolor="#666666"
   borderopacity="1"
   objecttolerance="10"
   gridtolerance="10"
   guidetolerance="10"
   inkscape:pageopacity="0"
   inkscape:pageshadow="2"
   inkscape:window-width="705"
   inkscape:window-height="480"
   id="namedview26"
   showgrid="false"
   inkscape:zoom="0.4609375"
   inkscape:cx="256"
   inkscape:cy="253.83051"
   inkscape:window-x="7"
   inkscape:window-y="35"
   inkscape:window-maximized="0"
   inkscape:current-layer="svg2" />
<style
   type="text/css"
   id="style4">
	.st0{fill:#999999;}
</style>
<path
   id="rect8"
   style="fill:#000000"
   d="m 10,10 0,140 140,0 0,-140 -140,0 z m 180,0 0,140 140,0 0,-140 -140,0 z m 180,0 0,140 140,0 0,-140 -140,0 z m -360,180 0,140 140,0 0,-140 -140,0 z m 180,0 0,140 140,0 0,-140 -140,0 z m 180,0 0,140 140,0 0,-140 -140,0 z m -360,180 0,140 140,0 0,-140 -140,0 z m 180,0 0,140 140,0 0,-140 -140,0 z m 180,0 0,140 140,0 0,-140 -140,0 z" />
</svg>